<svg width="21" height="20" viewBox="0 0 21 20" fill="none" xmlns="http://www.w3.org/2000/svg">
<path d="M13.5269 5.46431V3.73216C13.5269 3.27276 13.3444 2.83218 13.0196 2.50734C12.6947 2.18249 12.2542 2 11.7948 2H5.73222C5.27282 2 4.83224 2.18249 4.5074 2.50734C4.18256 2.83218 4.00006 3.27276 4.00006 3.73216V14.1251C4.00006 14.5845 4.18256 15.0251 4.5074 15.3499C4.83224 15.6748 5.27282 15.8572 5.73222 15.8572H11.7948C12.2542 15.8572 12.6947 15.6748 13.0196 15.3499C13.3444 15.0251 13.5269 14.5845 13.5269 14.1251V12.3929" stroke="black" stroke-width="1.6" stroke-linecap="round" stroke-linejoin="round"/>
<path d="M4.00001 6.3315V4.59934C4.00001 4.13995 4.09955 3.69937 4.27673 3.37452C4.45392 3.04968 4.69424 2.86719 4.94482 2.86719L8.25166 3.73327C8.50224 3.73327 8.74256 3.91576 8.91974 4.2406C9.09693 4.56544 9.19647 5.00602 9.19647 5.46542V15.8584C9.19647 16.3178 8.91974 17.0832 8.91974 17.0832C8.91974 17.0832 8.50224 17.5905 8.25166 17.5905L4.94482 16.7244C4.69424 16.7244 4.45392 16.5419 4.27673 16.2171C4.09955 15.8923 4.00001 15.4517 4.00001 14.9923V13.2601" stroke="black" stroke-width="1.6" stroke-linecap="round" stroke-linejoin="round"/>
<path d="M11.7948 8.93026H18.7234M18.7234 8.93026L17.2387 11.5285M18.7234 8.93026L17.2387 6.33203" stroke="black" stroke-width="1.6" stroke-linecap="round" stroke-linejoin="round"/>
</svg>
