<svg width="24" height="24" viewBox="0 0 24 24" fill="none" xmlns="http://www.w3.org/2000/svg">
<path fill-rule="evenodd" clip-rule="evenodd" d="M15.8787 9.08973C15.8787 10.1184 15.47 11.105 14.7426 11.8324C14.0152 12.5599 13.0286 12.9685 11.9999 12.9685C10.9712 12.9685 9.98458 12.5599 9.25716 11.8324C8.52975 11.105 8.12109 10.1184 8.12109 9.08973C8.12109 8.06101 8.52975 7.07442 9.25716 6.34701C9.98458 5.61959 10.9712 5.21094 11.9999 5.21094C13.0286 5.21094 14.0152 5.61959 14.7426 6.34701C15.47 7.07442 15.8787 8.06101 15.8787 9.08973ZM13.9393 9.08973C13.9393 9.60408 13.7349 10.0974 13.3712 10.4611C13.0075 10.8248 12.5142 11.0291 11.9999 11.0291C11.4855 11.0291 10.9922 10.8248 10.6285 10.4611C10.2648 10.0974 10.0605 9.60408 10.0605 9.08973C10.0605 8.57537 10.2648 8.08207 10.6285 7.71837C10.9922 7.35466 11.4855 7.15033 11.9999 7.15033C12.5142 7.15033 13.0075 7.35466 13.3712 7.71837C13.7349 8.08207 13.9393 8.57537 13.9393 9.08973Z" fill="#032031"/>
<path fill-rule="evenodd" clip-rule="evenodd" d="M11.9999 1.33203C6.10901 1.33203 1.33325 6.10779 1.33325 11.9987C1.33325 17.8896 6.10901 22.6654 11.9999 22.6654C17.8908 22.6654 22.6666 17.8896 22.6666 11.9987C22.6666 6.10779 17.8908 1.33203 11.9999 1.33203ZM3.27265 11.9987C3.27265 14.0254 3.96404 15.8911 5.12283 17.3728C5.93663 16.3041 6.98649 15.438 8.1904 14.8422C9.39431 14.2463 10.7197 13.9369 12.0629 13.9381C13.3888 13.9368 14.6975 14.2382 15.8893 14.8193C17.0811 15.4004 18.1245 16.2459 18.94 17.2913C19.7802 16.1893 20.3459 14.9032 20.5904 13.5391C20.8348 12.1751 20.7509 10.7725 20.3456 9.44741C19.9403 8.12227 19.2253 6.91268 18.2598 5.91873C17.2942 4.92478 16.1059 4.17505 14.793 3.73155C13.4802 3.28806 12.0806 3.16357 10.7101 3.36837C9.33958 3.57317 8.03753 4.10138 6.9117 4.9093C5.78586 5.71721 4.86858 6.7816 4.23578 8.0144C3.60297 9.2472 3.27282 10.613 3.27265 11.9987ZM11.9999 20.726C9.99648 20.729 8.05351 20.0398 6.4998 18.7749C7.12518 17.8797 7.95758 17.1487 8.92617 16.6442C9.89475 16.1397 10.9709 15.8767 12.0629 15.8775C13.1414 15.8766 14.2045 16.1331 15.164 16.6255C16.1234 17.118 16.9515 17.8323 17.5796 18.709C16.0138 20.0149 14.0388 20.7288 11.9999 20.726Z" fill="#032031"/>
</svg>
