<svg width="20" height="20" viewBox="0 0 20 20" fill="none" xmlns="http://www.w3.org/2000/svg">
<path fill-rule="evenodd" clip-rule="evenodd" d="M9.58329 2.5C10.4025 2.50006 11.1991 2.76826 11.8516 3.26362C12.5041 3.75898 12.9765 4.45428 13.1966 5.24333L13.24 5.41417L14.7983 5.025C14.9122 4.99665 15.0308 4.99268 15.1463 5.01335C15.2619 5.03403 15.3718 5.07887 15.4688 5.14496C15.5658 5.21105 15.6477 5.29688 15.7092 5.39684C15.7708 5.4968 15.8105 5.60862 15.8258 5.725L15.8333 5.83333V7.34167C16.3031 7.79211 16.6881 8.32333 16.97 8.91L17.085 9.16667H17.5C17.7041 9.16669 17.9011 9.24163 18.0536 9.37726C18.2061 9.5129 18.3036 9.69979 18.3275 9.9025L18.3333 10V12.5C18.3333 12.6372 18.2995 12.7722 18.2348 12.8932C18.1701 13.0141 18.0766 13.1172 17.9625 13.1933L17.8725 13.245L16.8991 13.7325C16.5007 14.5034 15.9235 15.1677 15.2158 15.67L15 15.815V16.6667C14.9999 16.8708 14.925 17.0678 14.7894 17.2203C14.6537 17.3728 14.4668 17.4703 14.2641 17.4942L14.1666 17.5H11.6666C11.4625 17.5 11.2655 17.425 11.113 17.2894C10.9605 17.1538 10.863 16.9669 10.8391 16.7642L10.8333 16.6667H9.99996C9.99993 16.8708 9.925 17.0678 9.78936 17.2203C9.65373 17.3728 9.46683 17.4703 9.26413 17.4942L9.16663 17.5H6.66663C6.46251 17.5 6.26551 17.425 6.11298 17.2894C5.96045 17.1538 5.86301 16.9669 5.83913 16.7642L5.83329 16.6667V15.815C5.23128 15.4301 4.71125 14.9301 4.3031 14.3436C3.89495 13.7571 3.60671 13.0957 3.45496 12.3975C2.96357 12.2513 2.52897 11.9576 2.21 11.5562C1.89104 11.1548 1.7031 10.6651 1.67163 10.1533L1.66663 10V9.58333C1.66686 9.37093 1.74819 9.16664 1.894 9.01219C2.03981 8.85775 2.23909 8.7648 2.45112 8.75236C2.66316 8.73991 2.87194 8.8089 3.03482 8.94522C3.1977 9.08155 3.30237 9.27492 3.32746 9.48583L3.33329 9.58333V10C3.33329 10.1233 3.35996 10.2408 3.40829 10.3458C3.53549 9.59559 3.81923 8.88055 4.24107 8.24722C4.6629 7.6139 5.21336 7.0765 5.85663 6.67C5.7975 6.1454 5.8498 5.61423 6.01011 5.11125C6.17043 4.60826 6.43513 4.14479 6.78692 3.75115C7.1387 3.35752 7.56963 3.0426 8.05151 2.827C8.5334 2.61139 9.05537 2.49996 9.58329 2.5ZM13.3333 9.16667C13.1123 9.16667 12.9003 9.25446 12.744 9.41074C12.5878 9.56702 12.5 9.77899 12.5 10C12.5 10.221 12.5878 10.433 12.744 10.5893C12.9003 10.7455 13.1123 10.8333 13.3333 10.8333C13.5543 10.8333 13.7663 10.7455 13.9225 10.5893C14.0788 10.433 14.1666 10.221 14.1666 10C14.1666 9.77899 14.0788 9.56702 13.9225 9.41074C13.7663 9.25446 13.5543 9.16667 13.3333 9.16667ZM9.58329 4.16667C9.07854 4.16666 8.59094 4.34992 8.21113 4.68237C7.83132 5.01482 7.58512 5.47385 7.51829 5.97417C7.92213 5.88039 8.33538 5.83313 8.74996 5.83333H11.5641L11.6225 5.81917C11.5236 5.35163 11.2671 4.93228 10.8958 4.63142C10.5246 4.33055 10.0612 4.16647 9.58329 4.16667Z" fill="#48EABA"/>
</svg>
