<svg width="20" height="20" viewBox="0 0 20 20" fill="none" xmlns="http://www.w3.org/2000/svg">
<path d="M16.6667 1.66797H8.33337C7.67033 1.66797 7.03445 1.93136 6.56561 2.4002C6.09677 2.86904 5.83337 3.50493 5.83337 4.16797V10.0013C5.83337 10.6643 6.09677 11.3002 6.56561 11.7691C7.03445 12.2379 7.67033 12.5013 8.33337 12.5013H16.6667C17.3298 12.5013 17.9656 12.2379 18.4345 11.7691C18.9033 11.3002 19.1667 10.6643 19.1667 10.0013V4.16797C19.1667 3.50493 18.9033 2.86904 18.4345 2.4002C17.9656 1.93136 17.3298 1.66797 16.6667 1.66797ZM17.5 10.0013C17.5 10.2223 17.4122 10.4343 17.256 10.5906C17.0997 10.7468 16.8877 10.8346 16.6667 10.8346H8.33337C8.11236 10.8346 7.9004 10.7468 7.74412 10.5906C7.58784 10.4343 7.50004 10.2223 7.50004 10.0013V4.16797C7.50004 3.94695 7.58784 3.73499 7.74412 3.57871C7.9004 3.42243 8.11236 3.33464 8.33337 3.33464H16.6667C16.8877 3.33464 17.0997 3.42243 17.256 3.57871C17.4122 3.73499 17.5 3.94695 17.5 4.16797V10.0013ZM14.5834 6.66797C14.2749 6.66901 13.9778 6.78487 13.75 6.99297C13.5708 6.83009 13.3482 6.72277 13.1092 6.68405C12.8701 6.64533 12.625 6.67687 12.4035 6.77485C12.1821 6.87282 11.9939 7.03301 11.8617 7.23594C11.7296 7.43887 11.6593 7.67581 11.6593 7.91797C11.6593 8.16012 11.7296 8.39706 11.8617 8.6C11.9939 8.80293 12.1821 8.96311 12.4035 9.06109C12.625 9.15906 12.8701 9.19061 13.1092 9.15188C13.3482 9.11316 13.5708 9.00584 13.75 8.84297C13.9005 8.97974 14.0821 9.07774 14.279 9.12845C14.476 9.17917 14.6823 9.18107 14.8801 9.13399C15.078 9.08692 15.2613 8.99229 15.4143 8.85832C15.5673 8.72434 15.6853 8.55507 15.758 8.36517C15.8308 8.17528 15.8561 7.9705 15.8318 7.7686C15.8075 7.5667 15.7343 7.37378 15.6186 7.20657C15.5029 7.03936 15.3481 6.9029 15.1677 6.80905C14.9873 6.71519 14.7867 6.66676 14.5834 6.66797ZM13.3334 14.168C13.1124 14.168 12.9004 14.2558 12.7441 14.412C12.5878 14.5683 12.5 14.7803 12.5 15.0013V15.8346C12.5 16.0556 12.4122 16.2676 12.256 16.4239C12.0997 16.5802 11.8877 16.668 11.6667 16.668H3.33337C3.11236 16.668 2.9004 16.5802 2.74412 16.4239C2.58784 16.2676 2.50004 16.0556 2.50004 15.8346V12.5013H3.33337C3.55439 12.5013 3.76635 12.4135 3.92263 12.2572C4.07891 12.1009 4.16671 11.889 4.16671 11.668C4.16671 11.447 4.07891 11.235 3.92263 11.0787C3.76635 10.9224 3.55439 10.8346 3.33337 10.8346H2.50004V10.0013C2.50004 9.78029 2.58784 9.56833 2.74412 9.41205C2.9004 9.25577 3.11236 9.16797 3.33337 9.16797C3.55439 9.16797 3.76635 9.08017 3.92263 8.92389C4.07891 8.76761 4.16671 8.55565 4.16671 8.33464C4.16671 8.11362 4.07891 7.90166 3.92263 7.74538C3.76635 7.5891 3.55439 7.5013 3.33337 7.5013C2.67033 7.5013 2.03445 7.76469 1.56561 8.23353C1.09677 8.70238 0.833374 9.33826 0.833374 10.0013V15.8346C0.833374 16.4977 1.09677 17.1336 1.56561 17.6024C2.03445 18.0712 2.67033 18.3346 3.33337 18.3346H11.6667C12.3297 18.3346 12.9656 18.0712 13.4345 17.6024C13.9033 17.1336 14.1667 16.4977 14.1667 15.8346V15.0013C14.1667 14.7803 14.0789 14.5683 13.9226 14.412C13.7664 14.2558 13.5544 14.168 13.3334 14.168ZM5.00004 15.0013H5.83337C6.05439 15.0013 6.26635 14.9135 6.42263 14.7572C6.57891 14.6009 6.66671 14.389 6.66671 14.168C6.66671 13.947 6.57891 13.735 6.42263 13.5787C6.26635 13.4224 6.05439 13.3346 5.83337 13.3346H5.00004C4.77903 13.3346 4.56707 13.4224 4.41079 13.5787C4.25451 13.735 4.16671 13.947 4.16671 14.168C4.16671 14.389 4.25451 14.6009 4.41079 14.7572C4.56707 14.9135 4.77903 15.0013 5.00004 15.0013Z" fill="#FF7C7C"/>
</svg>
