<svg width="20" height="20" viewBox="0 0 20 20" fill="none" xmlns="http://www.w3.org/2000/svg">
<path d="M7 8C7.79565 8 8.55871 7.68393 9.12132 7.12132C9.68393 6.55871 10 5.79565 10 5C10 4.20435 9.68393 3.44129 9.12132 2.87868C8.55871 2.31607 7.79565 2 7 2C6.20435 2 5.44128 2.31607 4.87868 2.87868C4.31607 3.44129 4 4.20435 4 5C4 5.79565 4.31607 6.55871 4.87868 7.12132C5.44128 7.68393 6.20435 8 7 8ZM14.5 9C15.163 9 15.7989 8.73661 16.2678 8.26777C16.7366 7.79893 17 7.16304 17 6.5C17 5.83696 16.7366 5.20107 16.2678 4.73223C15.7989 4.26339 15.163 4 14.5 4C13.837 4 13.2011 4.26339 12.7322 4.73223C12.2634 5.20107 12 5.83696 12 6.5C12 7.16304 12.2634 7.79893 12.7322 8.26777C13.2011 8.73661 13.837 9 14.5 9ZM1.615 16.428C1.41893 16.3058 1.26145 16.1306 1.16076 15.9227C1.06007 15.7148 1.02028 15.4826 1.046 15.253C1.23035 13.8041 1.93675 12.4721 3.03281 11.5066C4.12887 10.5412 5.53937 10.0086 7 10.0086C8.46062 10.0086 9.87112 10.5412 10.9672 11.5066C12.0632 12.4721 12.7696 13.8041 12.954 15.253C13.012 15.72 12.782 16.173 12.384 16.427C10.7772 17.4566 8.90835 18.0027 7 18C5.0914 18.0032 3.22214 17.4575 1.615 16.428ZM14.5 16H14.394C14.464 15.703 14.482 15.389 14.442 15.067C14.2711 13.6923 13.7213 12.3922 12.854 11.312C13.4121 11.0924 14.0085 10.9865 14.6081 11.0006C15.2077 11.0147 15.7985 11.1484 16.3457 11.394C16.8929 11.6395 17.3855 11.9919 17.7946 12.4305C18.2037 12.8691 18.5211 13.3851 18.728 13.948C18.7916 14.1277 18.7904 14.324 18.7247 14.5029C18.6589 14.6818 18.5328 14.8322 18.368 14.928C17.2007 15.6318 15.863 16.0025 14.5 16Z" fill="#FFBA57"/>
</svg>
