<svg width="271" height="271" viewBox="0 0 271 271" fill="none" xmlns="http://www.w3.org/2000/svg">
<mask id="mask0_1_118" style="mask-type:alpha" maskUnits="userSpaceOnUse" x="0" y="0" width="271" height="271">
<circle cx="135.5" cy="135.5" r="135.5" fill="#10294C"/>
</mask>
<g mask="url(#mask0_1_118)">
<path d="M103.729 205.148V222.85C86.8134 227.042 71.9778 237.413 62.0135 252.014L84.6337 268.898C84.6337 268.898 97.0466 251.66 111.428 249.116H164.431C175.25 252.807 184.76 259.69 191.766 268.898L209.693 253.408C199.752 238.758 184.913 228.336 167.978 224.112V206.41" fill="#FD4962"/>
<path d="M198.766 114.512H71.0898V146.707H198.766V114.512Z" fill="black"/>
<path d="M71.0834 146.729C63.6875 146.729 57.6973 139.516 57.6973 130.62C57.6973 121.725 63.6875 114.512 71.0834 114.512V146.729Z" fill="#00469B"/>
<path d="M198.757 146.729C206.153 146.729 212.165 139.516 212.165 130.62C212.165 121.725 206.153 114.512 198.757 114.512V146.729Z" fill="#00469B"/>
<path d="M71.0898 93.4297V114.583C71.0898 114.583 75.9339 144.677 104.631 145.562C133.328 146.447 134.906 126.068 134.906 126.068C136.731 130.441 139.47 134.354 142.929 137.53C149.8 143.419 158.645 146.332 167.582 145.65C171.732 146.428 176.009 146.074 179.983 144.626C183.957 143.177 187.489 140.684 190.224 137.397C195.574 131.003 198.626 122.93 198.874 114.517V93.4297H71.0898Z" fill="#3D3044"/>
<path d="M181.937 112.48C181.937 122.504 174.887 130.625 166.193 130.625C157.5 130.625 150.45 122.504 150.45 112.48H181.937Z" fill="#E2A185"/>
<path d="M120.414 112.48C120.414 122.504 113.364 130.625 104.671 130.625C95.9775 130.625 88.9492 122.504 88.9492 112.48H120.414Z" fill="#FDB682"/>
<path d="M198.766 146.734C199.296 161.347 195.233 175.749 187.175 187.825C185.293 190.613 166.739 216.878 135.425 216.104C109.475 215.462 93.3856 196.632 88.9091 191.365C78.4337 178.836 72.1849 163.185 71.0898 146.734H198.766Z" fill="#FFAC71"/>
<path d="M172.313 152.266C172.313 171.516 155.77 187.116 135.377 187.116C114.985 187.116 98.4844 171.516 98.4844 152.266H172.313Z" fill="#9E2C34"/>
<path d="M110.796 112.48C110.855 113.361 110.741 114.245 110.462 115.081C110.182 115.916 109.742 116.686 109.168 117.346C108.594 118.005 107.898 118.541 107.119 118.921C106.34 119.301 105.495 119.519 104.633 119.561C103.773 119.516 102.93 119.297 102.154 118.915C101.378 118.533 100.684 117.997 100.112 117.338C99.5403 116.679 99.1026 115.91 98.8244 115.076C98.5462 114.242 98.433 113.36 98.4916 112.48H110.796Z" fill="#7F334D"/>
<path d="M172.313 112.48C172.416 113.371 172.334 114.275 172.072 115.13C171.809 115.986 171.372 116.776 170.79 117.447C170.208 118.117 169.493 118.654 168.693 119.022C167.893 119.389 167.027 119.579 166.15 119.579C165.273 119.579 164.406 119.389 163.606 119.022C162.807 118.654 162.092 118.117 161.51 117.447C160.928 116.776 160.491 115.986 160.228 115.13C159.966 114.275 159.883 113.371 159.987 112.48H172.313Z" fill="#7F334D"/>
<path d="M71.0898 93.4275C71.0898 59.2406 99.6786 31.4707 134.928 31.4707C170.177 31.4707 198.766 59.1742 198.766 93.4275H71.0898Z" fill="#FD4962"/>
<path d="M172.316 152.266C172.359 155.208 171.965 158.14 171.148 160.962H99.633C99.2738 159.72 98.9921 158.456 98.7896 157.178C98.5411 155.553 98.4181 153.91 98.422 152.266H172.316Z" fill="#FFFEF6"/>
<path d="M119.438 183.71C120.285 180.061 122.202 176.765 124.93 174.261C127.959 171.348 131.954 169.719 136.111 169.703C138.237 169.721 140.339 170.176 142.289 171.043C144.24 171.91 146 173.17 147.464 174.748C149.636 177.21 151.004 180.304 151.378 183.599C146.34 185.846 140.904 187.006 135.408 187.006C129.912 187.006 124.475 185.846 119.438 183.599V183.71Z" fill="#CB3445"/>
<path d="M119.867 213.446C120.816 209.56 122.826 206.029 125.663 203.268C128.692 200.354 132.685 198.718 136.843 198.688C138.971 198.712 141.072 199.173 143.022 200.043C144.972 200.913 146.732 202.176 148.196 203.755C150.485 206.64 151.899 210.147 152.262 213.845C147.068 215.578 141.608 216.328 136.151 216.058C130.612 216.228 125.09 215.342 119.867 213.446Z" fill="#F9DD4D"/>
<path d="M84.5312 268.899L128.777 278.082H144.39L191.771 268.899C184.742 259.707 175.23 252.829 164.415 249.117H111.325C111.325 249.117 99.1067 249.759 84.5312 268.899Z" fill="#FADA53"/>
<path d="M144.372 249.113H128.78V278.078H144.372V249.113Z" fill="#433149"/>
<path d="M179.557 49.1055L166.193 69.3299V93.3603" stroke="#FADA53" stroke-miterlimit="10"/>
<path d="M90.3018 49.1055L103.666 69.3299V93.3603" stroke="#FADA53" stroke-miterlimit="10"/>
</g>
</svg>
