<svg width="12" height="12" viewBox="0 0 12 12" fill="none" xmlns="http://www.w3.org/2000/svg">
<path d="M6.00033 5.99935C5.26699 5.99935 4.63921 5.73824 4.11699 5.21602C3.59477 4.69379 3.33366 4.06602 3.33366 3.33268C3.33366 2.59935 3.59477 1.97157 4.11699 1.44935C4.63921 0.927127 5.26699 0.666016 6.00033 0.666016C6.73366 0.666016 7.36144 0.927127 7.88366 1.44935C8.40588 1.97157 8.66699 2.59935 8.66699 3.33268C8.66699 4.06602 8.40588 4.69379 7.88366 5.21602C7.36144 5.73824 6.73366 5.99935 6.00033 5.99935ZM0.666992 11.3327V9.46602C0.666992 9.08824 0.764326 8.7409 0.958992 8.42402C1.15366 8.10713 1.41188 7.86557 1.73366 7.69935C2.42255 7.3549 3.12255 7.09646 3.83366 6.92402C4.54477 6.75157 5.26699 6.66557 6.00033 6.66602C6.73366 6.66602 7.45588 6.75224 8.16699 6.92468C8.8781 7.09713 9.5781 7.35535 10.267 7.69935C10.5892 7.86602 10.8477 8.10779 11.0423 8.42468C11.237 8.74157 11.3341 9.08868 11.3337 9.46602V11.3327H0.666992Z" fill="white" fill-opacity="0.6"/>
</svg>
